<svg width="144" height="42" viewBox="0 0 144 42" fill="none" xmlns="http://www.w3.org/2000/svg">
<path d="M107.566 16.0957C100.344 16.0957 96.0674 21.3407 96.0674 26.9861C96.0674 32.5914 100.344 37.8364 107.566 37.8364C114.789 37.8364 119.065 32.5914 119.065 26.9861C119.065 21.3407 114.789 16.0957 107.566 16.0957ZM107.566 33.5123C103.491 33.5123 101.232 30.3893 101.232 27.0261C101.232 23.6629 103.491 20.4999 107.566 20.4999C111.641 20.4999 113.901 23.6629 113.901 27.0261C113.901 30.3893 111.641 33.5123 107.566 33.5123Z" fill="#72042E"/>
<path d="M138.836 16.6162V20.1796C137.787 17.9775 134.922 16.0957 131.291 16.0957C125.077 16.0957 120.72 21.0204 120.72 26.9861C120.72 32.9518 125.077 37.8364 131.291 37.8364C134.922 37.8364 137.706 35.8745 138.916 33.7525V37.3159H144V16.6162H138.836ZM132.299 33.5523C128.507 33.5523 126.005 30.6295 126.005 27.0261C126.005 23.4227 128.507 20.4599 132.299 20.4599C135.769 20.4599 138.715 23.0223 138.715 27.0261C138.715 31.0299 135.769 33.5523 132.299 33.5523Z" fill="#72042E"/>
<path d="M70.2854 8.24805H57.8584V37.3558H63.3053V29.188H70.2854C76.5393 29.188 80.9371 24.4635 80.9371 18.698C80.9371 12.9325 76.5393 8.24805 70.2854 8.24805ZM69.5592 24.5035H63.3053V12.8925H69.5592C73.1501 12.8925 75.4902 15.4549 75.4902 18.658C75.4902 21.901 73.1904 24.5035 69.5592 24.5035Z" fill="#72042E"/>
<path d="M88.1189 21.1005V16.6162H82.9948V37.396H88.2803V28.1472C88.2803 24.1033 90.2573 21.661 94.4938 21.661H95.6235V16.4561C91.9116 16.4561 89.1276 17.8174 88.1189 21.1005Z" fill="#72042E"/>
<path d="M27.1153 38.9571C25.0576 40.999 22.3947 42 19.6914 42C16.9881 42 14.3252 40.999 12.2675 38.9571L3.06827 29.8284C-1.04717 25.7445 -1.04717 19.1783 3.06827 15.0944C5.12599 13.0524 7.78892 12.0515 10.4922 12.0515C13.1955 12.0515 15.8584 13.0524 17.9161 15.0944L19.6511 16.816L16.4636 20.0191L14.7287 18.2974C13.5989 17.1764 12.1061 16.5758 10.4922 16.5758C8.8783 16.5758 7.38544 17.1764 6.25571 18.2974C5.12599 19.4185 4.52078 20.8999 4.52078 22.5014C4.52078 24.103 5.12599 25.5844 6.25571 26.7054L15.4146 35.7941C16.5443 36.9152 18.0372 37.5157 19.6511 37.5157C21.265 37.5157 22.7578 36.9152 23.8875 35.7941C26.2277 33.4719 26.2277 29.7083 23.8875 27.4261L19.6914 23.1821L22.8789 20.0191L27.1153 24.2231C31.1904 28.2669 31.1904 34.8732 27.1153 38.9571ZM9.28177 0C6.90127 0 5.00494 1.92183 5.00494 4.24404C5.00494 6.56625 6.90127 8.52812 9.28177 8.52812C11.6623 8.52812 13.5586 6.60629 13.5586 4.28408C13.5586 1.96187 11.6219 0 9.28177 0Z" fill="#FF585D"/>
<path d="M30.18 8.48808C32.5421 8.48808 34.4569 6.58796 34.4569 4.24404C34.4569 1.90012 32.5421 0 30.18 0C27.818 0 25.9032 1.90012 25.9032 4.24404C25.9032 6.58796 27.818 8.48808 30.18 8.48808Z" fill="#72042E"/>
<path d="M36.2724 15.0947C34.2147 13.0527 31.5518 12.0518 28.8485 12.0518C26.1452 12.0518 23.4823 13.0527 21.4245 15.0947L19.6896 16.8163L16.4618 20.0193L12.2253 24.2233C10.6518 25.7848 9.68344 27.7067 9.32031 29.7086L15.4128 35.7543C14.283 34.6333 13.6778 33.1519 13.6778 31.5503C13.6778 30.3091 14.041 29.148 14.7672 28.1471C14.969 27.8668 15.1707 27.5866 15.4531 27.3463L19.6896 23.1423L22.8771 19.9793L24.612 18.2577C25.7417 17.1366 27.2346 16.536 28.8485 16.536C30.4624 16.536 31.9552 17.1366 33.085 18.2577C34.2147 19.3787 34.8199 20.8601 34.8199 22.4617C34.8199 24.0632 34.2147 25.5446 33.085 26.6657L30.0186 29.7086C30.6238 32.9517 29.6554 36.435 27.1135 38.9574C27.0328 39.0375 26.9118 39.1576 26.8311 39.2376C26.9118 39.1576 27.0328 39.0375 27.1135 38.9574L36.2724 29.8687C40.3878 25.7848 40.3878 19.1785 36.2724 15.0947Z" fill="#72042E"/>
</svg>
